<svg xmlns="http://www.w3.org/2000/svg" viewBox="0 0 400 240" width="400" height="240" role="img" aria-labelledby="t">
<title id="t">Analytics dashboard with bar, line and ring charts</title>
<defs>
  <linearGradient id="gAI" x1="0" y1="0" x2="1" y2="1">
    <stop offset="0" stop-color="#5F86F7"/><stop offset=".55" stop-color="#7C5CF0"/><stop offset="1" stop-color="#14B8A6"/>
  </linearGradient>
  <linearGradient id="gAIh" x1="0" y1="0" x2="1" y2="0">
    <stop offset="0" stop-color="#93AFFF"/><stop offset=".5" stop-color="#B6A9FF"/><stop offset="1" stop-color="#5EEAD4"/>
  </linearGradient>
  <linearGradient id="gPanel" x1="0" y1="0" x2="0" y2="1">
    <stop offset="0" stop-color="#1A2746"/><stop offset="1" stop-color="#111A2E"/>
  </linearGradient>
  <linearGradient id="gStroke" x1="0" y1="0" x2="1" y2="1">
    <stop offset="0" stop-color="#fff" stop-opacity=".28"/><stop offset="1" stop-color="#fff" stop-opacity=".06"/>
  </linearGradient>
  <radialGradient id="gOrb" cx=".35" cy=".3" r=".8">
    <stop offset="0" stop-color="#fff"/><stop offset=".25" stop-color="#93AFFF"/><stop offset=".7" stop-color="#7C5CF0"/><stop offset="1" stop-color="#6D4AE0"/>
  </radialGradient>
  <filter id="fGlow" x="-50%" y="-50%" width="200%" height="200%">
    <feGaussianBlur stdDeviation="3.5" result="b"/><feMerge><feMergeNode in="b"/><feMergeNode in="SourceGraphic"/></feMerge>
  </filter>
  <filter id="fBlur" x="-50%" y="-50%" width="200%" height="200%"><feGaussianBlur stdDeviation="28"/></filter>
  <filter id="fShadow" x="-30%" y="-30%" width="160%" height="170%">
    <feDropShadow dx="0" dy="14" stdDeviation="14" flood-color="#000" flood-opacity=".5"/>
  </filter>
  <pattern id="pDots" width="18" height="18" patternUnits="userSpaceOnUse"><circle cx="1.5" cy="1.5" r="1.1" fill="#fff" fill-opacity=".09"/></pattern>
  <linearGradient id="gTile" x1="0" y1="0" x2="1" y2="1"><stop offset="0" stop-color="#121D38"/><stop offset="1" stop-color="#0A1222"/></linearGradient>
  <linearGradient id="gArea" x1="0" y1="0" x2="0" y2="1"><stop offset="0" stop-color="#5EEAD4" stop-opacity=".28"/><stop offset="1" stop-color="#5EEAD4" stop-opacity="0"/></linearGradient>
</defs>
<rect width="400" height="240" fill="url(#gTile)"/>
<rect width="400" height="240" fill="url(#pDots)"/>
<circle cx="130" cy="80" r="120" fill="#14B8A6" fill-opacity=".45" filter="url(#fBlur)"/>
<circle cx="270" cy="200" r="90" fill="#3A63EA" fill-opacity=".28" filter="url(#fBlur)"/>
  <g filter="url(#fShadow)">
    <rect x="40" y="30" width="218" height="186" rx="16" fill="url(#gPanel)" fill-opacity=".96"/>
    <rect x="40.5" y="30.5" width="217" height="185" rx="15.5" fill="none" stroke="url(#gStroke)"/>
  </g>
<rect x="56" y="48" width="70" height="6" rx="3" fill="#fff" fill-opacity="0.65"/><rect x="56" y="62" width="44" height="6" rx="3" fill="#fff" fill-opacity="0.25"/>
<rect x="196" y="44" width="46" height="20" rx="10" fill="#5EEAD4" fill-opacity=".15"/>
<path d="m206 58 6-6 5 4 7-8" stroke="#5EEAD4" stroke-width="2" fill="none" stroke-linecap="round" stroke-linejoin="round"/>
<path d="M56 100H244" stroke="#fff" stroke-opacity=".06"/><path d="M56 130H244" stroke="#fff" stroke-opacity=".06"/><path d="M56 160H244" stroke="#fff" stroke-opacity=".06"/>
<rect x="60" y="156" width="16" height="40" rx="5" fill="url(#gAI)" fill-opacity="0.5"/><rect x="86" y="134" width="16" height="62" rx="5" fill="url(#gAI)" fill-opacity="0.5700000000000001"/><rect x="112" y="146" width="16" height="50" rx="5" fill="url(#gAI)" fill-opacity="0.64"/><rect x="138" y="112" width="16" height="84" rx="5" fill="url(#gAI)" fill-opacity="0.71"/><rect x="164" y="124" width="16" height="72" rx="5" fill="url(#gAI)" fill-opacity="0.78"/><rect x="190" y="92" width="16" height="104" rx="5" fill="url(#gAI)" fill-opacity="0.8500000000000001"/><rect x="216" y="104" width="16" height="92" rx="5" fill="url(#gAI)" fill-opacity="0.92"/>
<path d="M68 196L68 142L94 121.1L120 132.5L146 100.2L172 111.6L198 81.2L224 92.6L224 196Z" fill="url(#gArea)"/>
<polyline points="68,142 94,121.1 120,132.5 146,100.2 172,111.6 198,81.2 224,92.6" fill="none" stroke="#5EEAD4" stroke-width="2.4" stroke-linejoin="round" filter="url(#fGlow)"/>
<circle cx="68" cy="142" r="3.2" fill="#fff"/><circle cx="94" cy="121.1" r="3.2" fill="#fff"/><circle cx="120" cy="132.5" r="3.2" fill="#fff"/><circle cx="146" cy="100.2" r="3.2" fill="#fff"/><circle cx="172" cy="111.6" r="3.2" fill="#fff"/><circle cx="198" cy="81.2" r="3.2" fill="#fff"/><circle cx="224" cy="92.6" r="3.2" fill="#fff"/>
  <g filter="url(#fShadow)">
    <rect x="272" y="46" width="96" height="150" rx="16" fill="url(#gPanel)" fill-opacity=".96"/>
    <rect x="272.5" y="46.5" width="95" height="149" rx="15.5" fill="none" stroke="url(#gStroke)"/>
  </g>
<circle cx="318" cy="96" r="30" fill="none" stroke="#fff" stroke-opacity=".07" stroke-width="10"/>
<circle cx="318" cy="96" r="30" fill="none" stroke="#5F86F7" stroke-width="10" stroke-dasharray="81.8 188.5" stroke-dashoffset="0" transform="rotate(-90 318 96)" stroke-linecap="round"/><circle cx="318" cy="96" r="30" fill="none" stroke="#8B7CF6" stroke-width="10" stroke-dasharray="53.5 188.5" stroke-dashoffset="-84.8" transform="rotate(-90 318 96)" stroke-linecap="round"/><circle cx="318" cy="96" r="30" fill="none" stroke="#5EEAD4" stroke-width="10" stroke-dasharray="44.1 188.5" stroke-dashoffset="-141.4" transform="rotate(-90 318 96)" stroke-linecap="round"/>
<rect x="288" y="146" width="60" height="5" rx="2.5" fill="#fff" fill-opacity="0.55"/><rect x="288" y="158" width="42" height="5" rx="2.5" fill="#fff" fill-opacity="0.25"/>
<circle cx="292" cy="178" r="4" fill="#5F86F7"/><circle cx="308" cy="178" r="4" fill="#8B7CF6"/><circle cx="324" cy="178" r="4" fill="#5EEAD4"/>
<path d="M378 21C379.05 26.95 379.05 26.95 385 28C379.05 29.05 379.05 29.05 378 35C376.95 29.05 376.95 29.05 371 28C376.95 26.95 376.95 26.95 378 21Z" fill="#5EEAD4" fill-opacity="0.9" filter="url(#fGlow)"/><path d="M26 26C26.6 29.4 26.6 29.4 30 30C26.6 30.6 26.6 30.6 26 34C25.4 30.6 25.4 30.6 22 30C25.4 29.4 25.4 29.4 26 26Z" fill="#fff" fill-opacity="0.6" filter="url(#fGlow)"/>
</svg>
